<svg version="1.1" id="Layer_1" xmlns="http://www.w3.org/2000/svg" xmlns:xlink="http://www.w3.org/1999/xlink" x="0px" y="0px"
	 width="100%" viewBox="0 0 512 512" enable-background="new 0 0 512 512" xml:space="preserve">
<path fill="#FFFFFF" opacity="1.000000" stroke="none" 
	d="
M285.000000,513.000000 
	C191.356064,513.000000 98.212105,512.979431 5.068284,513.085266 
	C1.794654,513.088989 0.894741,512.634033 0.897244,509.070068 
	C1.015188,341.111115 1.016870,173.152084 0.891658,5.193176 
	C0.888856,1.433910 1.851358,0.913638 5.304879,0.915623 
	C173.097229,1.012100 340.889618,1.011550 508.681976,0.918637 
	C512.099915,0.916745 513.113892,1.384340 513.110962,5.180007 
	C512.982544,173.138931 512.985107,341.097961 513.101257,509.056915 
	C513.103699,512.593994 512.246887,513.092834 508.944855,513.087769 
	C434.463348,512.973572 359.981659,513.000000 285.000000,513.000000 
z"/>
<path fill="#9599A5" opacity="1.000000" stroke="none" 
	d="
M58.192146,404.210449 
	C47.620575,391.853027 40.072456,377.965851 33.149391,363.760071 
	C20.640291,338.092041 13.082249,310.909088 10.262006,282.540863 
	C5.981377,239.482895 12.171056,197.912170 29.520954,158.166016 
	C42.878078,127.566727 61.589169,100.652000 85.842896,77.668793 
	C121.704651,43.685623 163.810120,21.519112 212.525894,13.128724 
	C287.821960,0.160371 355.895203,17.545321 414.929016,66.027374 
	C463.534119,105.944740 492.876465,157.754257 502.052765,220.216843 
	C511.928528,287.440643 496.460693,348.684814 456.404602,403.934662 
	C453.529907,404.641174 452.630402,402.523773 451.457520,401.044739 
	C437.196106,383.060425 420.928802,367.150970 402.348511,353.659698 
	C367.651703,328.466217 329.006622,313.375580 286.422516,308.161133 
	C243.641281,302.922638 202.394470,308.728546 162.618027,325.019806 
	C134.589661,336.499420 109.518326,352.626923 87.584229,373.641754 
	C78.428574,382.413666 69.734779,391.545593 61.940937,401.539032 
	C61.023788,402.714996 60.161457,403.984222 58.192146,404.210449 
z"/>
<path fill="#2B60A5" opacity="1.000000" stroke="none" 
	d="
M57.907955,404.414917 
	C64.465736,396.886322 70.381065,389.083069 77.173706,381.994080 
	C89.893402,368.719452 103.775208,356.886139 119.041916,346.716736 
	C143.917984,330.146393 170.946091,318.394104 200.057220,311.556458 
	C223.001419,306.167358 246.312134,303.830536 269.817261,305.202484 
	C304.022278,307.198914 336.745758,315.465637 367.448090,330.874176 
	C401.585175,348.006409 430.499451,371.590973 453.741089,402.002472 
	C454.242523,402.658569 454.886139,403.205994 455.781372,403.941101 
	C452.365234,410.829956 447.163635,416.475006 442.041718,422.113281 
	C402.363403,465.791595 353.647064,493.514526 295.111633,501.876862 
	C208.133087,514.302551 134.340958,487.508698 73.751213,424.082977 
	C68.007553,418.070465 62.684361,411.649872 57.907955,404.414917 
z"/>
<path fill="#2B60A5" opacity="1.000000" stroke="none" 
	d="
M254.092957,81.009689 
	C293.394684,81.220146 322.508881,98.292908 341.720947,131.867279 
	C347.858887,142.593765 350.828308,154.474594 352.175171,166.893799 
	C355.031128,193.229019 348.131287,216.694794 331.745575,237.124908 
	C315.915588,256.862152 295.204742,268.777618 269.892487,272.012390 
	C236.009033,276.342499 207.655289,265.283081 184.903198,240.201950 
	C172.138016,226.130005 164.603500,209.440918 161.869156,190.382309 
	C155.931900,148.999283 177.822922,110.333107 212.117447,92.085655 
	C225.038391,85.210678 238.933823,81.537621 254.092957,81.009689 
z"/>
</svg>